<mxfile host="app.diagrams.net" modified="2024-03-06T12:05:33.821Z" agent="Mozilla/5.0 (Macintosh; Intel Mac OS X 10_15_7) AppleWebKit/537.36 (KHTML, like Gecko) Chrome/122.0.0.0 Safari/537.36" etag="wenR2InspS-GvTVkEEdG" version="24.0.1" type="github">
  <diagram name="第 1 页" id="85suy_MSskMSAN7-TBiR">
    <mxGraphModel dx="1434" dy="761" grid="1" gridSize="10" guides="1" tooltips="1" connect="1" arrows="1" fold="1" page="1" pageScale="1" pageWidth="1654" pageHeight="1169" math="0" shadow="0">
      <root>
        <mxCell id="0" />
        <mxCell id="1" parent="0" />
        <mxCell id="u0WluIk5yHmTIqpYWVCs-25" style="edgeStyle=orthogonalEdgeStyle;rounded=0;sketch=1;hachureGap=4;jiggle=2;curveFitting=1;orthogonalLoop=1;jettySize=auto;html=1;exitX=0;exitY=0;exitDx=33.75;exitDy=0;exitPerimeter=0;entryX=0.5;entryY=1;entryDx=0;entryDy=0;shape=link;" edge="1" parent="1" source="u0WluIk5yHmTIqpYWVCs-2" target="u0WluIk5yHmTIqpYWVCs-13">
          <mxGeometry relative="1" as="geometry" />
        </mxCell>
        <mxCell id="u0WluIk5yHmTIqpYWVCs-26" style="edgeStyle=orthogonalEdgeStyle;rounded=0;sketch=1;hachureGap=4;jiggle=2;curveFitting=1;orthogonalLoop=1;jettySize=auto;html=1;exitX=0;exitY=0;exitDx=53.75;exitDy=130;exitPerimeter=0;entryX=0.5;entryY=0;entryDx=0;entryDy=0;shape=link;" edge="1" parent="1" source="u0WluIk5yHmTIqpYWVCs-2" target="u0WluIk5yHmTIqpYWVCs-11">
          <mxGeometry relative="1" as="geometry" />
        </mxCell>
        <mxCell id="u0WluIk5yHmTIqpYWVCs-29" style="edgeStyle=orthogonalEdgeStyle;rounded=0;sketch=1;hachureGap=4;jiggle=2;curveFitting=1;orthogonalLoop=1;jettySize=auto;html=1;exitX=0;exitY=0;exitDx=77.5;exitDy=10;exitPerimeter=0;entryX=0.25;entryY=0;entryDx=0;entryDy=0;shape=link;" edge="1" parent="1" source="u0WluIk5yHmTIqpYWVCs-2" target="u0WluIk5yHmTIqpYWVCs-28">
          <mxGeometry relative="1" as="geometry" />
        </mxCell>
        <mxCell id="u0WluIk5yHmTIqpYWVCs-2" value="base model" style="shape=cube;whiteSpace=wrap;html=1;boundedLbl=1;backgroundOutline=1;darkOpacity=0.05;darkOpacity2=0.1;sketch=1;hachureGap=4;jiggle=2;curveFitting=1;rotation=90;horizontal=0;fontSize=18;" vertex="1" parent="1">
          <mxGeometry x="736.25" y="188.75" width="87.5" height="130" as="geometry" />
        </mxCell>
        <mxCell id="u0WluIk5yHmTIqpYWVCs-9" value="load pdparams" style="rounded=0;whiteSpace=wrap;html=1;sketch=1;hachureGap=4;jiggle=2;curveFitting=1;" vertex="1" parent="1">
          <mxGeometry x="745" y="100" width="70" height="50" as="geometry" />
        </mxCell>
        <mxCell id="u0WluIk5yHmTIqpYWVCs-11" value="result&lt;div&gt;handler&lt;/div&gt;" style="rounded=0;whiteSpace=wrap;html=1;sketch=1;hachureGap=4;jiggle=2;curveFitting=1;" vertex="1" parent="1">
          <mxGeometry x="650" y="310" width="70" height="50" as="geometry" />
        </mxCell>
        <mxCell id="u0WluIk5yHmTIqpYWVCs-13" value="init&lt;div&gt;tokenizer&lt;/div&gt;" style="rounded=0;whiteSpace=wrap;html=1;sketch=1;hachureGap=4;jiggle=2;curveFitting=1;" vertex="1" parent="1">
          <mxGeometry x="840" y="132.5" width="70" height="50" as="geometry" />
        </mxCell>
        <mxCell id="u0WluIk5yHmTIqpYWVCs-14" value="predict" style="rounded=0;whiteSpace=wrap;html=1;sketch=1;hachureGap=4;jiggle=2;curveFitting=1;" vertex="1" parent="1">
          <mxGeometry x="745" y="350" width="70" height="50" as="geometry" />
        </mxCell>
        <mxCell id="u0WluIk5yHmTIqpYWVCs-15" value="init" style="rounded=0;whiteSpace=wrap;html=1;sketch=1;hachureGap=4;jiggle=2;curveFitting=1;" vertex="1" parent="1">
          <mxGeometry x="650" y="132.5" width="70" height="50" as="geometry" />
        </mxCell>
        <mxCell id="u0WluIk5yHmTIqpYWVCs-22" style="edgeStyle=orthogonalEdgeStyle;rounded=0;sketch=1;hachureGap=4;jiggle=2;curveFitting=1;orthogonalLoop=1;jettySize=auto;html=1;exitX=0;exitY=0;exitDx=10;exitDy=120;exitPerimeter=0;entryX=0.857;entryY=1.07;entryDx=0;entryDy=0;entryPerimeter=0;shape=link;" edge="1" parent="1" source="u0WluIk5yHmTIqpYWVCs-2" target="u0WluIk5yHmTIqpYWVCs-15">
          <mxGeometry relative="1" as="geometry" />
        </mxCell>
        <mxCell id="u0WluIk5yHmTIqpYWVCs-28" value="... ..." style="rounded=0;whiteSpace=wrap;html=1;sketch=1;hachureGap=4;jiggle=2;curveFitting=1;fontSize=15;" vertex="1" parent="1">
          <mxGeometry x="840" y="310" width="70" height="50" as="geometry" />
        </mxCell>
        <mxCell id="u0WluIk5yHmTIqpYWVCs-30" style="edgeStyle=orthogonalEdgeStyle;rounded=0;sketch=1;hachureGap=4;jiggle=2;curveFitting=1;orthogonalLoop=1;jettySize=auto;html=1;exitX=0;exitY=0;exitDx=0;exitDy=55;exitPerimeter=0;entryX=0.643;entryY=1;entryDx=0;entryDy=0;entryPerimeter=0;shape=link;" edge="1" parent="1" source="u0WluIk5yHmTIqpYWVCs-2" target="u0WluIk5yHmTIqpYWVCs-9">
          <mxGeometry relative="1" as="geometry" />
        </mxCell>
        <mxCell id="u0WluIk5yHmTIqpYWVCs-31" style="edgeStyle=orthogonalEdgeStyle;rounded=0;sketch=1;hachureGap=4;jiggle=2;curveFitting=1;orthogonalLoop=1;jettySize=auto;html=1;exitX=0;exitY=0;exitDx=87.5;exitDy=75;exitPerimeter=0;entryX=0.357;entryY=0;entryDx=0;entryDy=0;entryPerimeter=0;shape=link;" edge="1" parent="1" source="u0WluIk5yHmTIqpYWVCs-2" target="u0WluIk5yHmTIqpYWVCs-14">
          <mxGeometry relative="1" as="geometry" />
        </mxCell>
      </root>
    </mxGraphModel>
  </diagram>
</mxfile>
